<svg version="1.1" id="Layer_1" xmlns="http://www.w3.org/2000/svg" xmlns:xlink="http://www.w3.org/1999/xlink" x="0px" y="0px"
	 width="100%" viewBox="0 0 832 96" enable-background="new 0 0 832 96" xml:space="preserve">
<path fill="#000000" opacity="1.000000" stroke="none" 
	d="
M1.000000,28.000000 
	C1.000000,19.002142 1.000000,10.004284 1.000000,1.004820 
	C278.265167,1.003213 555.530334,1.003213 832.897766,1.003213 
	C832.897766,32.923943 832.897766,64.848328 832.897766,96.886353 
	C555.666687,96.886353 278.333344,96.886353 1.000000,96.886353 
	C1.000000,88.260979 1.000000,79.596535 1.358559,70.473190 
	C7.254418,73.859200 10.740797,67.619019 15.191369,67.232628 
	C16.120638,69.942375 17.036518,72.613091 17.952398,75.283798 
	C18.739838,75.246880 19.527277,75.209961 20.314716,75.173042 
	C20.876543,73.014732 22.132423,70.766342 21.866268,68.715485 
	C21.151230,63.205746 23.901474,61.122894 28.944809,60.076153 
	C28.944809,62.428009 28.944809,64.403656 28.944809,66.734718 
	C31.761255,65.529007 34.239491,64.468086 36.681953,63.422478 
	C37.708027,66.966812 36.840660,69.271339 33.276596,70.403374 
	C31.927530,70.831879 30.541187,71.747185 29.641428,72.830589 
	C28.558203,74.134895 27.975088,75.854538 27.175472,77.394379 
	C29.102570,77.931984 31.009008,78.761406 32.964359,78.899818 
	C34.173752,78.985428 35.457539,78.020050 37.001175,77.410713 
	C37.001175,80.303062 37.153210,82.644333 36.962673,84.957375 
	C36.724792,87.845146 38.431293,88.858749 40.748875,88.919640 
	C43.223633,88.984657 45.257771,88.193863 45.032166,84.963501 
	C44.862995,82.541267 44.998756,80.097733 44.998756,77.224480 
	C46.956535,78.103836 48.409821,79.236641 49.909119,79.301208 
	C51.560440,79.372330 53.254032,78.461937 54.929211,77.979118 
	C54.267937,76.315567 53.910820,74.411835 52.847729,73.065582 
	C52.019226,72.016396 50.319698,71.645966 48.994633,70.999771 
	C45.806519,69.445030 43.858337,67.325874 45.422512,63.489033 
	C47.842541,64.402817 50.159702,65.277763 52.955650,66.333496 
	C52.955650,63.862606 52.955650,62.225578 52.955650,60.544537 
	C58.219940,61.475662 61.224709,63.863796 60.023590,69.514481 
	C59.854340,70.310722 59.699192,71.367561 60.075108,71.966187 
	C60.768097,73.069733 62.076229,74.838493 62.739059,74.682045 
	C63.970783,74.391312 65.356712,73.102173 65.876381,71.885994 
	C66.458786,70.522964 66.152046,68.780006 66.256783,66.718239 
	C69.529037,68.316673 72.173416,70.157349 75.086319,70.823059 
	C76.802452,71.215248 78.944511,69.743736 80.895012,69.110413 
	C80.194603,67.186996 79.955421,64.833206 78.670006,63.455669 
	C77.254814,61.939068 74.877991,61.319794 72.463982,60.074268 
	C73.820007,59.228863 74.859665,58.908665 75.350861,58.205395 
	C76.338211,56.791744 77.026459,55.169178 77.838135,53.632824 
	C75.871315,52.935745 73.922089,51.773968 71.931732,51.698635 
	C70.513573,51.644947 68.950294,52.920727 67.608688,53.833782 
	C64.039238,56.263042 61.032852,55.393272 58.144642,52.520950 
	C60.074730,51.490028 61.903366,50.513294 64.025017,49.380054 
	C61.911549,48.061764 60.020599,46.882271 58.408497,45.876713 
	C61.634823,41.329960 65.232170,42.460850 68.945953,44.963573 
	C69.745003,45.502048 70.730949,46.134865 71.611130,46.106827 
	C73.685631,46.040756 76.845222,46.313889 77.588737,45.167503 
	C79.166267,42.735191 77.568878,40.649830 74.655693,39.838814 
	C73.820793,39.606388 73.110168,38.927521 71.884445,38.170364 
	C74.234657,36.981606 76.171837,35.741657 78.283401,34.994617 
	C81.459068,33.871113 81.740547,31.161007 80.688866,29.121431 
	C80.066910,27.915237 77.008064,27.141037 75.317436,27.490477 
	C72.257568,28.122936 69.401520,29.741484 67.838745,30.382738 
	C65.668625,27.628408 63.838020,23.597733 62.323524,23.713200 
	C58.298317,24.020092 59.843159,28.188520 60.149097,30.521915 
	C60.895737,36.216515 57.163364,37.220413 53.205135,38.549118 
	C53.028217,36.250122 52.868729,34.177631 52.669289,31.585989 
	C49.867599,32.709087 47.579056,33.626484 45.189186,34.584499 
	C45.189186,32.578423 45.189186,30.946337 45.189186,29.172195 
	C48.152763,27.947903 51.209976,27.089806 53.782330,25.464382 
	C55.233337,24.547512 55.885918,22.367073 56.898163,20.755825 
	C54.948826,19.992577 53.015236,18.679483 51.045654,18.623077 
	C49.134254,18.568336 47.185902,19.803753 44.997437,20.561325 
	C44.997437,17.691183 44.894650,15.191883 45.023708,12.704612 
	C45.181549,9.662600 43.071980,9.087099 40.911285,9.094264 
	C38.678787,9.101666 36.745266,9.885463 36.964870,12.882238 
	C37.145203,15.343122 37.001637,17.827740 37.001637,20.689013 
	C35.471283,20.033567 34.268169,19.065441 33.120762,19.127487 
	C31.143648,19.234402 29.201197,19.982401 27.244200,20.461367 
	C28.117548,22.109001 28.602362,24.249434 29.942005,25.305639 
	C33.107204,27.801155 38.813572,28.213305 36.606709,34.564747 
	C35.326004,34.165150 34.066151,33.806145 32.830814,33.376637 
	C31.689709,32.979893 30.574881,32.507565 29.259661,31.994928 
	C29.056650,34.228069 28.894804,36.008404 28.728403,37.838848 
	C23.009794,35.900253 23.009712,35.900253 23.000347,30.511412 
	C22.998610,29.511993 23.380938,28.255768 22.918327,27.565624 
	C21.896936,26.041874 20.450226,24.803221 19.177036,23.448256 
	C18.119364,24.706413 16.727022,25.821339 16.108171,27.267305 
	C15.598031,28.459267 16.004019,30.043312 16.004019,31.620604 
	C5.176757,27.446960 3.981824,27.164001 1.000000,28.000000 
M337.608856,75.972450 
	C338.737030,74.861984 340.894714,73.604378 340.761780,72.674149 
	C340.539978,71.122208 339.124451,69.380219 337.727509,68.429092 
	C334.433685,66.186455 329.302368,65.486565 331.373138,59.491264 
	C333.713318,60.401989 336.053467,61.312717 338.810455,62.385658 
	C338.955231,59.939640 339.057007,58.219978 339.155212,56.560722 
	C344.706268,57.506245 347.108429,60.443047 346.012848,65.853165 
	C345.915649,66.332977 345.797363,67.006523 346.038940,67.322044 
	C346.992401,68.567261 348.085571,69.705544 349.126892,70.883476 
	C350.083130,69.787056 351.383453,68.829697 351.898621,67.555023 
	C352.411072,66.286987 352.134796,64.700180 352.205322,63.233768 
	C357.328094,63.555302 361.228210,70.572754 366.825775,65.316505 
	C366.825775,63.618340 366.825775,61.979553 366.825775,60.546024 
	C364.016785,58.997650 361.427338,57.570282 358.508484,55.961357 
	C360.010345,55.068897 361.108002,54.754200 361.639923,54.026176 
	C362.578400,52.741730 363.171906,51.205261 363.909851,49.774303 
	C362.107635,48.918884 360.297668,47.381817 358.505402,47.402203 
	C356.757507,47.422081 354.948730,48.911671 353.306244,49.972202 
	C349.778320,52.250145 346.994080,51.179955 344.107239,48.582504 
	C346.244873,47.387562 347.961517,46.427948 350.035400,45.268650 
	C347.779602,43.944931 345.979034,42.888332 344.237885,41.866600 
	C347.573578,37.752522 350.957489,38.344341 354.825287,40.879124 
	C357.489655,42.625256 361.403137,44.961498 363.518982,41.325222 
	C366.212799,36.695545 360.617645,36.424091 357.923248,34.136932 
	C360.266479,32.978058 362.797852,32.303108 364.467438,30.719538 
	C365.825287,29.431650 366.150269,27.054808 366.933319,25.160891 
	C365.097809,24.526966 363.096954,23.093012 361.462341,23.430931 
	C358.361786,24.071915 355.471161,25.728251 352.486450,26.965662 
	C352.288483,26.439230 352.067627,26.130610 352.074646,25.827263 
	C352.141571,22.936659 352.253723,19.344618 348.441864,19.531717 
	C344.535309,19.723465 345.789581,23.651388 346.122742,25.864641 
	C346.973053,31.513533 343.857849,33.459885 339.163330,34.475166 
	C339.028076,32.356476 338.893677,30.251017 338.719635,27.524332 
	C335.946167,28.669390 333.623138,29.628475 331.353394,30.565561 
	C330.064606,26.647690 331.586029,24.481735 335.157959,23.370762 
	C336.860168,22.841328 338.760651,22.396925 340.068604,21.309406 
	C341.352997,20.241512 342.000244,18.407322 342.927124,16.909428 
	C341.156738,15.982740 339.385193,14.317441 337.616241,14.320168 
	C335.502686,14.323424 333.391296,15.753857 330.998413,16.673988 
	C330.998413,13.847485 330.858826,11.344818 331.034271,8.864438 
	C331.246613,5.862323 329.296600,5.096121 327.069641,5.094734 
	C324.908356,5.093386 322.809357,5.679633 322.974121,8.722421 
	C323.111938,11.268012 323.002380,13.826999 323.002380,16.776226 
	C321.013153,15.907493 319.670258,14.842320 318.343414,14.861916 
	C316.659180,14.886789 314.988007,15.791966 313.311188,16.317566 
	C313.974915,17.899559 314.217194,19.977848 315.383392,20.968128 
	C318.560120,23.665688 324.701385,23.892883 322.659363,30.686184 
	C320.238739,29.814238 317.839539,28.950016 315.338531,28.049124 
	C315.072083,30.163885 314.837860,32.022781 314.620605,33.747334 
	C309.492920,33.274525 308.442963,30.288385 308.980896,26.167799 
	C309.109131,25.185369 309.377777,23.916386 308.915314,23.225080 
	C307.947906,21.778837 306.536591,20.629501 305.307617,19.358215 
	C304.206818,20.593517 302.742493,21.670843 302.116119,23.112301 
	C301.580292,24.345345 302.005249,25.995901 302.005249,27.861227 
	C298.811981,26.341623 296.124847,24.578083 293.180634,23.839725 
	C291.351990,23.381140 288.053833,23.828682 287.338043,25.022438 
	C286.203308,26.914886 286.448944,29.755718 289.589569,30.962564 
	C291.770996,31.800823 293.786285,33.071434 296.194061,34.313004 
	C293.764557,35.599926 291.914795,36.579765 290.166809,37.505669 
	C290.139099,42.130928 292.482544,44.044029 296.464081,42.757923 
	C297.691193,42.361542 298.882629,41.719212 299.948364,40.983662 
	C303.275604,38.687210 306.393799,38.525959 309.298950,41.557526 
	C307.587097,42.749523 305.868195,43.946419 303.883148,45.328629 
	C306.112732,46.521618 307.934357,47.496315 309.862274,48.527893 
	C306.966522,51.314507 303.949554,52.344360 300.413757,49.817394 
	C299.217804,48.962681 297.923065,47.406784 296.778900,47.497723 
	C294.553680,47.674583 292.403015,48.789093 290.221436,49.515209 
	C291.120148,51.150681 291.872131,52.896683 292.983490,54.371971 
	C293.490234,55.044628 294.706482,55.182777 295.654663,55.586231 
	C292.788116,59.168495 284.734558,58.044651 287.345978,65.696602 
	C290.355774,67.177971 290.355774,67.177971 301.211273,63.329838 
	C302.126801,65.955597 303.057831,68.625824 303.988861,71.296059 
	C304.814423,71.244698 305.640015,71.193329 306.465576,71.141968 
	C306.977112,68.809723 308.138214,66.400146 307.871582,64.160561 
	C307.218994,58.679184 310.382294,57.209438 314.961945,56.071083 
	C314.961945,58.477409 314.961945,60.454212 314.961945,62.738647 
	C317.755737,61.533829 320.231201,60.466305 322.625885,59.433609 
	C323.867188,63.122128 322.645020,65.237640 319.231049,66.426224 
	C317.729492,66.948990 316.165131,67.869225 315.152924,69.055725 
	C314.156433,70.223793 313.822601,71.957176 313.197998,73.442505 
	C314.839325,74.098877 316.470490,75.232910 318.125061,75.268219 
	C319.582733,75.299324 321.066559,74.102654 323.001282,73.242584 
	C323.001282,76.126068 323.144531,78.580513 322.964294,81.010956 
	C322.748993,83.914085 324.478973,84.885292 326.801331,84.922295 
	C329.293854,84.962013 331.266144,84.105690 331.033508,80.910149 
	C330.858307,78.503471 330.998871,76.073814 330.998871,73.141525 
	C333.310699,74.249115 335.064423,75.089302 337.608856,75.972450 
M119.624054,54.032677 
	C120.336395,55.209438 121.048744,56.386200 121.759529,57.560390 
	C118.572945,59.058121 116.159950,59.325771 114.837479,55.614662 
	C114.479805,54.610954 113.434967,53.373180 112.493851,53.154705 
	C110.451233,52.680534 107.691231,51.917690 106.273331,52.856640 
	C103.578209,54.641376 105.969559,56.457420 107.452721,57.975960 
	C107.877457,58.410824 108.242126,58.904350 108.736954,59.493061 
	C105.992165,60.046558 103.646317,60.532642 101.295021,60.990738 
	C97.652336,61.700432 97.336700,64.083908 99.763351,65.936531 
	C101.521049,67.278450 104.419830,67.250496 106.844795,67.542625 
	C108.117477,67.695938 109.465477,67.224106 109.432373,67.228882 
	C110.642632,70.311111 111.031509,73.816490 112.389336,74.243958 
	C115.355751,75.177811 116.411446,72.200943 116.975639,69.658600 
	C117.927246,65.370522 120.707779,64.495865 124.608200,65.280807 
	C123.937279,67.114082 123.345802,68.730278 122.483574,71.086311 
	C125.455429,70.711060 127.540535,70.447784 129.625641,70.184502 
	C129.845322,70.653687 130.064987,71.122871 130.284668,71.592056 
	C128.532928,72.730659 126.743164,73.815544 125.038811,75.021141 
	C122.788818,76.612686 117.539207,74.311760 118.338234,79.283508 
	C118.593330,80.870773 122.622269,81.851517 125.449806,83.396904 
	C125.544739,85.760956 119.649612,90.216698 125.803940,92.652946 
	C131.849121,95.045982 130.581711,87.651581 132.891968,85.656380 
	C135.549469,86.675224 137.955261,87.597565 139.981567,88.374420 
	C144.462341,81.687279 132.856033,79.468468 137.139526,73.055519 
	C138.955887,74.549469 140.548477,75.859367 142.370071,77.357620 
	C143.228363,75.424660 143.898010,73.916573 144.316406,72.974289 
	C146.029022,74.189629 147.757629,75.416306 149.261932,76.483826 
	C144.597855,85.787994 144.953033,87.088310 151.405457,86.734421 
	C152.099030,85.255135 152.779541,83.803665 153.786499,81.655937 
	C156.065750,84.164040 157.620270,86.457878 159.733185,87.973061 
	C160.931702,88.832527 163.045319,88.415939 164.746796,88.574043 
	C164.770233,86.819550 165.241104,84.909348 164.699051,83.351639 
	C164.080582,81.574303 162.559738,80.110970 161.890884,79.162933 
	C163.611496,77.174606 165.211777,75.325333 166.812042,73.476059 
	C164.145035,72.651451 161.484146,71.805885 158.805099,71.022400 
	C158.347397,70.888542 157.791901,71.114433 157.316086,71.012733 
	C155.217758,70.564278 153.132065,70.056747 151.041779,69.570618 
	C151.129791,68.995468 151.217804,68.420319 151.305801,67.845169 
	C152.869232,67.346062 154.432663,66.846954 156.289520,66.254166 
	C155.097397,64.692001 154.173004,63.480667 153.077591,62.045223 
	C159.032974,59.017342 160.845627,64.024750 163.929123,66.521706 
	C165.047821,67.427620 167.270813,68.004189 168.432266,67.484558 
	C169.307602,67.092941 169.651138,64.689125 169.544174,63.231392 
	C169.479019,62.343433 168.110031,61.551151 166.626266,59.969006 
	C170.177582,59.421822 172.955002,58.993881 176.115219,58.506962 
	C176.115219,56.960804 176.521637,53.992340 176.050980,53.846073 
	C172.252167,52.665497 168.288422,52.015648 165.139557,51.362389 
	C164.498535,49.254631 164.397018,45.845654 163.132889,45.339329 
	C159.303253,43.805443 159.436615,47.702179 158.577682,49.935429 
	C157.293564,53.274197 155.067093,55.013680 150.984604,54.822910 
	C151.348465,52.831436 151.652161,51.169304 151.989609,49.322491 
	C149.857971,49.066902 147.975906,48.841236 146.093842,48.615566 
	C145.891876,48.227711 145.689911,47.839855 145.487946,47.451996 
	C146.844666,46.367901 148.052170,44.861298 149.598831,44.315071 
	C151.241653,43.734879 153.251678,44.286186 155.014542,43.922497 
	C156.228973,43.671951 157.926208,42.924995 158.250320,41.996094 
	C158.572144,41.073753 157.737808,38.924675 156.896271,38.584064 
	C154.888245,37.771324 152.577209,37.707264 149.942276,37.266140 
	C150.435074,35.603657 151.473831,33.766594 151.372986,31.994371 
	C151.260727,30.021433 150.111160,28.107517 149.413147,26.167908 
	C147.651947,27.311890 145.551086,28.164284 144.238403,29.693319 
	C143.212128,30.888758 143.163605,32.923592 142.670975,34.618752 
	C142.230927,34.399204 141.890060,34.307087 141.651901,34.097984 
	C139.742767,32.421768 137.919403,29.269423 135.082520,31.676384 
	C132.112259,34.196518 135.338440,36.084862 136.541122,38.314468 
	C137.731140,40.520557 141.960434,42.574718 137.791962,46.056557 
	C136.377365,44.787704 134.927170,43.486927 133.286896,42.015644 
	C132.403259,43.728416 131.611435,45.263248 130.839188,46.760136 
	C125.346176,44.325424 128.078506,40.870853 129.082123,37.361382 
	C129.485901,35.949482 128.306564,34.084858 127.847733,32.426273 
	C126.447235,32.912357 124.897278,33.170315 123.694588,33.958313 
	C122.769455,34.564468 122.281288,35.837543 121.255043,37.305920 
	C119.364822,35.234665 118.084152,32.927906 116.140564,31.979086 
	C114.498962,31.177685 112.088730,31.950768 110.018692,32.026989 
	C110.351868,33.851559 110.331711,35.850109 111.119827,37.450665 
	C111.873833,38.981941 113.468086,40.099480 114.035942,40.701847 
	C111.827187,42.445702 109.802193,44.044468 107.777199,45.643238 
	C108.044449,46.449471 108.311699,47.255707 108.578957,48.061943 
	C111.391960,48.061943 114.236870,48.328419 117.010117,47.996391 
	C120.711243,47.553272 121.925323,48.070354 123.305153,51.605850 
	C121.968826,52.203819 120.640114,52.798382 119.624054,54.032677 
M779.069580,55.090519 
	C781.010742,63.104359 782.951965,71.118202 784.753601,78.555962 
	C781.005005,80.593658 778.383911,82.018448 775.762817,83.443237 
	C775.957520,84.236633 776.152283,85.030022 776.347046,85.823410 
	C790.808594,82.439728 805.311340,85.430817 820.133728,84.184761 
	C817.619141,80.977295 814.981323,78.191002 811.879028,76.091087 
	C809.748657,74.649109 809.192139,73.770782 809.385315,70.877342 
	C810.071228,60.601082 811.007874,50.116756 809.689941,39.992390 
	C808.263733,29.036304 801.074829,20.612719 791.874146,14.587924 
	C785.840149,10.636759 774.007202,13.560819 765.523621,21.197193 
	C770.489502,23.112913 775.048645,24.871691 779.012085,26.400681 
	C779.012085,35.933361 779.012085,45.070503 779.069580,55.090519 
M219.114456,40.664845 
	C219.409454,41.735935 219.658096,42.822598 220.011154,43.874187 
	C220.456802,45.201515 220.987595,46.500248 221.481644,47.811321 
	C222.757568,47.273628 224.014938,46.685112 225.313950,46.210598 
	C227.096390,45.559479 228.910400,44.994801 230.942719,44.315601 
	C230.942719,43.309010 231.126953,42.125492 230.888672,41.034237 
	C230.668930,40.027840 229.492889,39.057316 229.603195,38.179722 
	C230.347916,32.254349 230.123657,32.035004 224.390121,34.240414 
	C220.728561,35.648846 218.488480,34.098377 219.046967,30.320698 
	C219.585098,26.680780 221.794281,26.520456 224.725555,27.906366 
	C226.896805,28.932947 229.913757,30.579330 230.761627,26.949022 
	C231.468353,23.923025 230.623993,20.534765 230.500458,18.001095 
	C228.230225,16.841631 226.218872,15.952574 224.349930,14.827013 
	C221.646393,13.198816 220.335815,14.050537 220.019516,16.987183 
	C219.930725,17.811609 220.294525,18.852116 219.910904,19.443100 
	C219.076355,20.728773 217.777771,22.820103 216.879288,22.718636 
	C215.196548,22.528606 213.338577,21.277357 212.237152,19.914885 
	C211.830307,19.411613 213.007980,16.935202 214.052444,16.071762 
	C218.376450,12.497231 218.326736,11.950703 212.732269,9.518067 
	C212.423340,9.383745 212.310516,8.852855 212.016373,8.620564 
	C210.885529,7.727513 209.511154,6.008664 208.612671,6.221716 
	C207.269547,6.540208 206.251678,8.230393 206.025955,8.446445 
	C203.763611,9.441026 201.336853,10.171437 201.390610,10.541533 
	C201.646164,12.300812 202.115311,14.551996 203.366745,15.531518 
	C205.749054,17.396223 208.004181,18.726370 204.310791,21.251488 
	C203.201157,22.010136 200.937653,23.005325 200.609238,22.637245 
	C199.416565,21.300503 198.786377,19.447142 198.011261,17.757788 
	C197.491379,16.624697 197.382172,14.921985 196.536667,14.436543 
	C195.822342,14.026426 194.289154,14.937966 193.161545,15.375708 
	C191.255707,16.115561 189.383942,16.943228 186.759842,18.043383 
	C187.280197,19.693953 188.523407,21.730221 188.432022,23.704723 
	C188.156082,29.667177 187.953262,29.655651 193.901962,27.563160 
	C197.170639,26.413383 199.062943,27.250687 199.005173,31.039024 
	C198.948517,34.752197 197.143814,35.414951 192.903946,34.125977 
	C191.196869,33.607006 187.414246,34.377567 187.348053,34.907509 
	C186.951508,38.081722 187.362671,41.356842 187.477386,44.005463 
	C189.785217,45.220467 191.762177,46.676968 193.968460,47.249046 
	C195.086670,47.538986 196.909454,46.516403 197.857803,45.544693 
	C198.453888,44.933929 197.613190,43.065922 198.142319,42.210682 
	C198.927628,40.941441 200.295029,39.330040 201.526184,39.229443 
	C202.852341,39.121075 204.760666,40.284142 205.551193,41.468884 
	C206.106323,42.300808 205.557007,44.302555 204.890121,45.416157 
	C203.875748,47.109959 202.332153,48.486832 201.013321,49.998310 
	C202.538574,50.779053 204.076614,51.536644 205.575195,52.365623 
	C205.798813,52.489326 205.754013,53.043087 205.974792,53.236462 
	C207.055771,54.183224 208.361801,55.960350 209.255432,55.781448 
	C210.631073,55.506046 211.735397,53.875488 212.597504,53.129185 
	C214.106583,52.560535 216.588791,51.921490 216.548370,51.590950 
	C216.332672,49.827374 215.571381,48.103237 214.834274,46.438305 
	C214.083618,44.742714 213.142029,43.131649 212.284042,41.483570 
	C214.353058,40.872364 215.738663,37.211666 219.114456,40.664845 
M557.176697,84.994553 
	C563.739929,84.548813 570.324524,83.558678 576.860291,83.814751 
	C583.047546,84.057167 589.091797,87.814354 595.962402,84.186409 
	C594.537476,83.232430 593.463623,82.086281 592.171143,81.727211 
	C588.072144,80.588432 586.837585,78.406342 588.747925,74.472878 
	C589.302795,73.330460 589.396423,71.959557 589.673279,70.687256 
	C592.242615,58.880432 595.948364,47.189583 593.034424,34.852474 
	C592.400330,32.168156 593.621155,30.701860 596.382629,29.926838 
	C599.389893,29.082846 602.224670,27.624512 605.134705,26.434011 
	C605.192810,25.926048 605.250916,25.418085 605.309082,24.910120 
	C600.585022,22.941174 595.916138,20.818960 591.106812,19.086849 
	C589.435974,18.485098 587.373535,18.554976 585.565063,18.823601 
	C578.152527,19.924627 574.014587,25.737280 570.157776,31.036024 
	C562.607910,41.408508 561.673035,53.335903 563.811890,65.770752 
	C564.620361,70.470398 566.940552,76.015472 559.894531,78.758102 
	C558.196899,79.418915 556.970703,81.429146 555.716736,82.972450 
	C555.471680,83.274048 556.100708,84.285797 557.176697,84.994553 
M723.600891,37.904552 
	C720.009216,36.961559 716.245728,34.807270 712.856018,35.288090 
	C699.169312,37.229485 688.629333,53.929314 691.614197,67.394539 
	C692.655273,72.090866 695.167175,77.751938 687.567322,80.096878 
	C686.300232,80.487823 685.464539,82.276924 683.896362,84.008728 
	C696.928650,84.008728 709.046509,84.008728 722.219116,84.008728 
	C720.506470,82.905899 719.880371,82.227798 719.144409,82.073334 
	C714.262085,81.048592 714.017395,78.862801 715.652344,74.250351 
	C717.908630,67.885071 718.837463,61.007381 719.903259,54.280788 
	C720.391846,51.196983 718.574829,46.874607 720.107666,45.054348 
	C721.953003,42.862885 726.252747,42.745983 729.475586,41.687096 
	C729.664917,41.624866 729.725647,41.171230 730.017395,40.514378 
	C728.149597,39.677696 726.270996,38.836155 723.600891,37.904552 
M403.765839,58.688118 
	C405.615326,55.137848 401.737885,54.801910 400.341705,53.546448 
	C399.620117,52.897625 396.544220,54.080070 395.199768,55.221584 
	C394.455566,55.853413 395.376831,58.179958 395.017670,59.609497 
	C394.678772,60.958553 393.807983,62.276768 392.867126,63.339352 
	C392.112427,64.191658 390.902435,64.640839 389.570526,65.470825 
	C389.314667,64.093918 389.428558,62.595295 388.750977,61.687328 
	C388.141449,60.870510 386.478058,60.108135 385.609894,60.379311 
	C384.122070,60.844025 382.891907,62.133698 381.371399,63.205376 
	C381.371399,64.092422 381.013123,65.763481 381.485168,67.152328 
	C381.860504,68.256660 383.113800,69.353775 384.238586,69.809875 
	C384.988953,70.114143 386.197998,69.287224 387.288147,68.938957 
	C387.288147,71.846138 387.288147,74.322495 387.288147,76.816460 
	C382.013489,75.823692 382.013489,75.823692 381.341614,83.629807 
	C382.544495,83.811134 384.108429,83.576653 384.884735,84.250092 
	C387.446442,86.472260 388.089050,86.417618 388.999512,83.228119 
	C389.288605,82.215363 389.637634,81.219704 390.113220,79.735672 
	C390.830566,81.188026 391.163452,82.694733 391.671356,82.756248 
	C395.175262,83.180626 395.611877,84.633675 394.333160,87.769325 
	C393.991028,88.608253 396.009460,90.397888 396.925049,91.763901 
	C399.451569,95.533180 400.850433,91.102882 402.797485,90.779701 
	C403.263306,90.702377 403.785980,88.362579 403.549500,87.214310 
	C403.091858,84.992393 403.595886,83.912682 405.868439,82.834145 
	C406.708679,82.435371 407.188599,81.277428 407.912170,80.365753 
	C409.634308,84.907310 409.634308,84.907310 416.424286,83.228577 
	C416.556763,81.501839 416.981171,79.925690 416.679504,78.503571 
	C416.480194,77.563980 415.337982,76.335823 414.436920,76.158974 
	C413.343048,75.944275 412.058655,76.700211 410.693848,77.081718 
	C410.693848,74.272377 410.693848,71.796021 410.693848,69.315742 
	C415.751556,70.001381 415.751556,70.001381 416.761230,62.563416 
	C415.510681,62.207600 413.795929,62.245232 413.097626,61.421345 
	C411.095093,59.058765 409.983063,59.928837 409.084595,62.126511 
	C408.625458,63.249554 408.530365,64.521439 408.345001,65.381416 
	C407.017181,64.572777 405.764038,64.187302 405.140503,63.339035 
	C404.261139,62.142754 403.847839,60.603889 403.765839,58.688118 
M240.512527,81.265778 
	C241.067413,82.156128 241.622299,83.046478 242.177185,83.936813 
	C243.668930,82.143791 245.160690,80.350769 246.567734,78.659561 
	C246.816116,79.172966 247.141953,80.691284 247.646454,80.753166 
	C251.104401,81.177368 251.596146,82.599945 250.339478,85.743263 
	C249.998947,86.595009 252.011688,88.370552 252.916534,89.740433 
	C255.425629,93.539101 256.836243,89.112915 258.771881,88.783363 
	C259.255310,88.701057 259.799561,86.374092 259.565918,85.232231 
	C259.102539,82.967323 259.591064,81.893608 261.843384,80.835495 
	C262.689392,80.438034 263.175934,79.275383 263.898956,78.370766 
	C265.628174,82.831779 265.628174,82.831779 272.463501,81.236702 
	C272.574280,79.569839 272.975189,77.973747 272.671478,76.525421 
	C272.473694,75.582314 271.352142,74.335403 270.461731,74.161797 
	C269.364319,73.947845 268.077026,74.707802 266.738342,75.084404 
	C266.838562,73.533165 266.992737,72.299751 266.976929,71.068520 
	C266.960907,69.823906 266.776520,68.581459 266.665436,67.332764 
	C272.679535,68.094948 272.679535,68.094948 272.455536,60.434135 
	C271.269135,60.119335 269.681732,60.186481 269.096527,59.453495 
	C267.153168,57.019455 266.004181,57.918705 265.089386,60.103241 
	C264.621490,61.220535 264.542694,62.500755 264.027344,64.942451 
	C263.183655,62.851192 262.904724,61.325592 262.502716,61.292431 
	C258.484924,60.960991 258.252441,59.122726 259.834747,55.947536 
	C260.136292,55.342438 259.148743,53.817898 258.419342,53.028717 
	C256.335358,50.774029 254.519028,50.472191 251.710678,52.786083 
	C249.245712,54.817020 250.055435,55.828808 251.054337,57.881229 
	C251.353928,58.496803 249.646667,60.205696 248.700562,61.273537 
	C247.960602,62.108730 246.976166,62.727348 245.762009,63.718334 
	C245.486496,54.697063 240.476883,60.432579 237.711517,60.416553 
	C237.476761,62.506161 236.946823,64.236847 237.240051,65.814537 
	C237.397629,66.662346 238.894165,67.649643 239.922119,67.839348 
	C240.973587,68.033394 242.190796,67.329323 243.269196,67.036392 
	C243.269196,69.983688 243.269196,72.444763 243.269196,75.250839 
	C242.028275,74.768578 241.165833,74.220337 240.251785,74.113541 
	C235.172546,73.520065 238.310989,77.682121 237.378036,79.471115 
	C236.160065,81.806625 237.741119,82.352837 240.512527,81.265778 
M477.797394,62.431351 
	C473.103424,59.872742 474.522125,67.323723 470.916077,66.688034 
	C470.727509,66.654800 470.129761,67.738190 470.108246,68.316109 
	C470.088470,68.846344 470.543549,69.426575 470.871552,69.931396 
	C471.863342,71.457840 472.895020,72.958351 474.479858,75.314430 
	C475.363007,74.634064 476.481018,73.564255 477.789154,72.835785 
	C478.713989,72.320732 480.497467,71.724220 480.848785,72.112640 
	C481.829987,73.197533 482.552216,74.737358 482.745087,76.181953 
	C482.804077,76.623665 480.447388,78.094116 479.835022,77.793556 
	C477.531921,76.663124 475.856445,77.198952 476.168518,79.558968 
	C476.504974,82.103699 477.421387,85.395439 479.259644,86.679970 
	C481.003754,87.898666 484.267792,86.942116 486.876373,86.942116 
	C486.876373,83.675255 486.876373,81.037781 486.876373,78.733276 
	C497.865936,78.751251 487.164948,85.429413 489.582855,87.092697 
	C492.678986,87.924255 494.764343,89.094345 496.586517,88.772827 
	C497.944031,88.533318 498.968231,86.370148 500.127136,85.051628 
	C500.956146,84.108467 501.762482,83.145355 502.578918,82.191132 
	C501.367340,81.459740 500.083069,80.823448 498.965302,79.969284 
	C497.920959,79.171211 496.188629,78.005623 496.308350,77.246063 
	C496.492859,76.075775 497.846527,74.599548 499.003265,74.253891 
	C499.714386,74.041389 500.919373,75.793571 502.017151,76.480644 
	C503.262421,77.260017 505.336975,78.728279 505.829529,78.341515 
	C507.777771,76.811668 509.247772,74.672798 510.635651,73.061058 
	C509.419769,70.664436 508.277466,68.412880 506.793732,65.488297 
	C505.394104,66.309875 504.012115,67.323471 502.473267,67.954399 
	C501.419769,68.386307 499.946808,68.719017 499.032349,68.295326 
	C498.188171,67.904198 497.170654,66.194366 497.426239,65.516792 
	C497.815521,64.484779 499.124573,63.471355 500.249359,63.130035 
	C501.590302,62.723125 503.149109,63.034164 505.011383,63.034164 
	C504.434937,60.037682 504.777863,56.570621 503.266815,55.288212 
	C501.357635,53.667969 497.937805,53.827816 494.615814,53.098186 
	C494.406738,54.595993 493.747620,56.013313 494.145569,57.007538 
	C496.574982,63.077282 492.684204,61.952950 488.509033,61.721714 
	C489.287476,59.488132 490.254608,57.743366 490.395325,55.934315 
	C490.483856,54.796154 489.607574,52.886360 488.682373,52.511349 
	C486.772430,51.737213 484.540161,51.758308 482.314758,51.433941 
	C481.072266,53.512142 479.664124,55.867474 477.975494,58.691887 
	C479.167633,59.407051 480.401306,60.532402 481.835571,60.925152 
	C484.585602,61.678188 485.426819,62.644440 483.411346,65.154961 
	C479.538727,69.978767 479.575836,64.514030 477.797394,62.431351 
M440.323608,20.901661 
	C437.749786,21.534159 433.892609,24.974157 434.815765,18.144522 
	C434.952240,17.135101 433.013885,15.845229 432.651917,15.416023 
	C429.615234,16.825983 427.431183,17.840061 424.705811,19.105467 
	C425.243439,20.026676 426.663666,21.369478 426.408295,22.192226 
	C423.973389,30.037235 428.015564,27.791904 432.133331,26.202145 
	C432.686768,25.988495 434.914825,27.951138 434.791931,28.613789 
	C434.562469,29.851080 433.287323,31.643078 432.243469,31.793959 
	C430.894531,31.988935 429.345795,30.801430 426.909332,29.814968 
	C426.220703,33.050011 425.543549,36.231277 424.985443,38.853119 
	C427.780548,40.319809 430.048157,41.509705 433.106781,43.114677 
	C433.800934,40.993767 434.516357,38.807850 435.512421,35.764378 
	C437.121216,36.317081 438.968567,36.951736 440.815918,37.586380 
	C439.253387,39.804077 437.690887,42.021778 436.138763,44.246838 
	C442.284760,48.941475 445.142883,48.862045 449.568054,44.202629 
	C448.156830,41.840359 446.806183,39.579475 445.455536,37.318596 
	C447.310669,36.825157 449.165833,36.331722 450.132721,36.074543 
	C451.479645,39.190090 452.365723,41.239666 453.133484,43.015610 
	C456.127380,41.404369 458.251343,40.261284 461.018341,38.772152 
	C460.687866,37.934536 459.322296,36.237865 459.696594,35.127850 
	C461.710815,29.154202 459.141022,29.659369 455.047882,31.359722 
	C454.095490,31.755352 452.181000,31.558357 451.687164,30.900200 
	C451.062500,30.067741 450.955475,28.161118 451.520538,27.317499 
	C452.068634,26.499249 453.805206,26.019291 454.918793,26.164667 
	C456.062439,26.313969 457.083832,27.399916 459.244354,28.758755 
	C459.954895,24.916279 460.542267,21.739990 461.017181,19.171888 
	C458.205841,17.675795 455.941650,16.470890 452.892578,14.848270 
	C452.192261,17.022867 451.485504,19.217453 450.504486,22.263714 
	C448.853729,21.685238 447.007507,21.038273 445.161316,20.391308 
	C446.731201,18.170853 448.301056,15.950397 449.861694,13.723373 
	C443.673035,9.110874 440.702026,9.205933 436.303558,13.956121 
	C437.849457,16.117622 439.363739,18.234924 440.323608,20.901661 
M631.175842,80.343559 
	C629.878845,81.687088 628.581909,83.030617 627.101013,84.564629 
	C634.988098,84.564629 642.156311,84.564629 649.324463,84.564629 
	C645.440918,82.548180 645.533264,79.886749 646.776611,76.201042 
	C648.060913,72.394135 648.998657,68.204124 648.824829,64.237053 
	C648.593018,58.948792 647.113892,53.700485 655.811768,53.175552 
	C649.860657,49.675018 644.963196,46.619133 639.528625,51.056789 
	C634.590393,55.089184 631.905457,60.330994 631.983276,66.865410 
	C632.035522,71.247673 631.918396,75.631958 631.175842,80.343559 
z"/>
<path fill="#65A6AF" opacity="1.000000" stroke="none" 
	d="
M1.000000,28.428463 
	C3.981824,27.164001 5.176757,27.446960 16.004019,31.620604 
	C16.004019,30.043312 15.598031,28.459267 16.108171,27.267305 
	C16.727022,25.821339 18.119364,24.706413 19.177036,23.448256 
	C20.450226,24.803221 21.896936,26.041874 22.918327,27.565624 
	C23.380938,28.255768 22.998610,29.511993 23.000347,30.511412 
	C23.009712,35.900253 23.009794,35.900253 28.728403,37.838848 
	C28.894804,36.008404 29.056650,34.228069 29.259661,31.994928 
	C30.574881,32.507565 31.689709,32.979893 32.830814,33.376637 
	C34.066151,33.806145 35.326004,34.165150 36.606709,34.564747 
	C38.813572,28.213305 33.107204,27.801155 29.942005,25.305639 
	C28.602362,24.249434 28.117548,22.109001 27.244200,20.461367 
	C29.201197,19.982401 31.143648,19.234402 33.120762,19.127487 
	C34.268169,19.065441 35.471283,20.033567 37.001637,20.689013 
	C37.001637,17.827740 37.145203,15.343122 36.964870,12.882238 
	C36.745266,9.885463 38.678787,9.101666 40.911285,9.094264 
	C43.071980,9.087099 45.181549,9.662600 45.023708,12.704612 
	C44.894650,15.191883 44.997437,17.691183 44.997437,20.561325 
	C47.185902,19.803753 49.134254,18.568336 51.045654,18.623077 
	C53.015236,18.679483 54.948826,19.992577 56.898163,20.755825 
	C55.885918,22.367073 55.233337,24.547512 53.782330,25.464382 
	C51.209976,27.089806 48.152763,27.947903 45.189186,29.172195 
	C45.189186,30.946337 45.189186,32.578423 45.189186,34.584499 
	C47.579056,33.626484 49.867599,32.709087 52.669289,31.585989 
	C52.868729,34.177631 53.028217,36.250122 53.205135,38.549118 
	C57.163364,37.220413 60.895737,36.216515 60.149097,30.521915 
	C59.843159,28.188520 58.298317,24.020092 62.323524,23.713200 
	C63.838020,23.597733 65.668625,27.628408 67.838745,30.382738 
	C69.401520,29.741484 72.257568,28.122936 75.317436,27.490477 
	C77.008064,27.141037 80.066910,27.915237 80.688866,29.121431 
	C81.740547,31.161007 81.459068,33.871113 78.283401,34.994617 
	C76.171837,35.741657 74.234657,36.981606 71.884445,38.170364 
	C73.110168,38.927521 73.820793,39.606388 74.655693,39.838814 
	C77.568878,40.649830 79.166267,42.735191 77.588737,45.167503 
	C76.845222,46.313889 73.685631,46.040756 71.611130,46.106827 
	C70.730949,46.134865 69.745003,45.502048 68.945953,44.963573 
	C65.232170,42.460850 61.634823,41.329960 58.408497,45.876713 
	C60.020599,46.882271 61.911549,48.061764 64.025017,49.380054 
	C61.903366,50.513294 60.074730,51.490028 58.144642,52.520950 
	C61.032852,55.393272 64.039238,56.263042 67.608688,53.833782 
	C68.950294,52.920727 70.513573,51.644947 71.931732,51.698635 
	C73.922089,51.773968 75.871315,52.935745 77.838135,53.632824 
	C77.026459,55.169178 76.338211,56.791744 75.350861,58.205395 
	C74.859665,58.908665 73.820007,59.228863 72.463982,60.074268 
	C74.877991,61.319794 77.254814,61.939068 78.670006,63.455669 
	C79.955421,64.833206 80.194603,67.186996 80.895012,69.110413 
	C78.944511,69.743736 76.802452,71.215248 75.086319,70.823059 
	C72.173416,70.157349 69.529037,68.316673 66.256783,66.718239 
	C66.152046,68.780006 66.458786,70.522964 65.876381,71.885994 
	C65.356712,73.102173 63.970783,74.391312 62.739059,74.682045 
	C62.076229,74.838493 60.768097,73.069733 60.075108,71.966187 
	C59.699192,71.367561 59.854340,70.310722 60.023590,69.514481 
	C61.224709,63.863796 58.219940,61.475662 52.955650,60.544537 
	C52.955650,62.225578 52.955650,63.862606 52.955650,66.333496 
	C50.159702,65.277763 47.842541,64.402817 45.422512,63.489033 
	C43.858337,67.325874 45.806519,69.445030 48.994633,70.999771 
	C50.319698,71.645966 52.019226,72.016396 52.847729,73.065582 
	C53.910820,74.411835 54.267937,76.315567 54.929211,77.979118 
	C53.254032,78.461937 51.560440,79.372330 49.909119,79.301208 
	C48.409821,79.236641 46.956535,78.103836 44.998756,77.224480 
	C44.998756,80.097733 44.862995,82.541267 45.032166,84.963501 
	C45.257771,88.193863 43.223633,88.984657 40.748875,88.919640 
	C38.431293,88.858749 36.724792,87.845146 36.962673,84.957375 
	C37.153210,82.644333 37.001175,80.303062 37.001175,77.410713 
	C35.457539,78.020050 34.173752,78.985428 32.964359,78.899818 
	C31.009008,78.761406 29.102570,77.931984 27.175472,77.394379 
	C27.975088,75.854538 28.558203,74.134895 29.641428,72.830589 
	C30.541187,71.747185 31.927530,70.831879 33.276596,70.403374 
	C36.840660,69.271339 37.708027,66.966812 36.681953,63.422478 
	C34.239491,64.468086 31.761255,65.529007 28.944809,66.734718 
	C28.944809,64.403656 28.944809,62.428009 28.944809,60.076153 
	C23.901474,61.122894 21.151230,63.205746 21.866268,68.715485 
	C22.132423,70.766342 20.876543,73.014732 20.314716,75.173042 
	C19.527277,75.209961 18.739838,75.246880 17.952398,75.283798 
	C17.036518,72.613091 16.120638,69.942375 15.191369,67.232628 
	C10.740797,67.619019 7.254418,73.859200 1.358559,70.007156 
	C1.000000,68.285645 1.000000,66.571281 1.369040,64.421303 
	C4.456330,62.638325 7.174578,61.290966 10.381521,59.701374 
	C8.731757,59.099068 7.614096,59.005005 7.001659,58.399734 
	C5.853764,57.265274 4.060922,55.663132 4.260898,54.571419 
	C4.505537,53.235874 6.365297,51.644238 7.820739,51.250599 
	C9.068316,50.913174 10.821938,51.934021 12.191431,52.657623 
	C16.083704,54.714188 19.894974,57.098961 23.768211,52.477123 
	C21.929188,51.496906 20.106798,50.525555 17.915655,49.357651 
	C19.876316,47.938133 21.642469,46.659439 23.163061,45.558533 
	C18.990189,40.558701 15.363864,45.151833 11.339235,46.046108 
	C9.114972,46.540337 5.323468,46.435905 4.430113,45.116924 
	C2.589742,42.399723 4.953446,40.496208 7.819954,39.630451 
	C8.487139,39.428947 9.036661,38.837864 10.274572,37.993336 
	C6.876204,36.530106 3.938102,35.265053 1.000000,34.000000 
	C1.000000,32.285641 1.000000,30.571283 1.000000,28.428463 
M36.067192,47.406387 
	C33.937637,51.251347 37.588406,52.814392 39.524223,53.743534 
	C42.058983,54.960148 45.562260,54.040268 45.931694,50.555431 
	C46.144527,48.547764 44.913330,45.311382 43.337109,44.451050 
	C41.171635,43.269100 37.733376,42.963787 36.067192,47.406387 
z"/>
<path fill="#000000" opacity="1.000000" stroke="none" 
	d="
M1.000000,34.468658 
	C3.938102,35.265053 6.876204,36.530106 10.274572,37.993336 
	C9.036661,38.837864 8.487139,39.428947 7.819954,39.630451 
	C4.953446,40.496208 2.589742,42.399723 4.430113,45.116924 
	C5.323468,46.435905 9.114972,46.540337 11.339235,46.046108 
	C15.363864,45.151833 18.990189,40.558701 23.163061,45.558533 
	C21.642469,46.659439 19.876316,47.938133 17.915655,49.357651 
	C20.106798,50.525555 21.929188,51.496906 23.768211,52.477123 
	C19.894974,57.098961 16.083704,54.714188 12.191431,52.657623 
	C10.821938,51.934021 9.068316,50.913174 7.820739,51.250599 
	C6.365297,51.644238 4.505537,53.235874 4.260898,54.571419 
	C4.060922,55.663132 5.853764,57.265274 7.001659,58.399734 
	C7.614096,59.005005 8.731757,59.099068 10.381521,59.701374 
	C7.174578,61.290966 4.456330,62.638325 1.369040,63.992844 
	C1.000000,54.312439 1.000000,44.624878 1.000000,34.468658 
z"/>
<path fill="#65A6AF" opacity="1.000000" stroke="none" 
	d="
M337.213501,75.950974 
	C335.064423,75.089302 333.310699,74.249115 330.998871,73.141525 
	C330.998871,76.073814 330.858307,78.503471 331.033508,80.910149 
	C331.266144,84.105690 329.293854,84.962013 326.801331,84.922295 
	C324.478973,84.885292 322.748993,83.914085 322.964294,81.010956 
	C323.144531,78.580513 323.001282,76.126068 323.001282,73.242584 
	C321.066559,74.102654 319.582733,75.299324 318.125061,75.268219 
	C316.470490,75.232910 314.839325,74.098877 313.197998,73.442505 
	C313.822601,71.957176 314.156433,70.223793 315.152924,69.055725 
	C316.165131,67.869225 317.729492,66.948990 319.231049,66.426224 
	C322.645020,65.237640 323.867188,63.122128 322.625885,59.433609 
	C320.231201,60.466305 317.755737,61.533829 314.961945,62.738647 
	C314.961945,60.454212 314.961945,58.477409 314.961945,56.071083 
	C310.382294,57.209438 307.218994,58.679184 307.871582,64.160561 
	C308.138214,66.400146 306.977112,68.809723 306.465576,71.141968 
	C305.640015,71.193329 304.814423,71.244698 303.988861,71.296059 
	C303.057831,68.625824 302.126801,65.955597 301.211273,63.329838 
	C290.355774,67.177971 290.355774,67.177971 287.345978,65.696602 
	C284.734558,58.044651 292.788116,59.168495 295.654663,55.586231 
	C294.706482,55.182777 293.490234,55.044628 292.983490,54.371971 
	C291.872131,52.896683 291.120148,51.150681 290.221436,49.515202 
	C292.403015,48.789093 294.553680,47.674583 296.778900,47.497723 
	C297.923065,47.406784 299.217804,48.962681 300.413757,49.817394 
	C303.949554,52.344360 306.966522,51.314507 309.862274,48.527893 
	C307.934357,47.496315 306.112732,46.521618 303.883148,45.328629 
	C305.868195,43.946419 307.587097,42.749523 309.298950,41.557526 
	C306.393799,38.525959 303.275604,38.687210 299.948364,40.983662 
	C298.882629,41.719212 297.691193,42.361542 296.464081,42.757923 
	C292.482544,44.044029 290.139099,42.130928 290.166809,37.505669 
	C291.914795,36.579765 293.764557,35.599926 296.194061,34.313004 
	C293.786285,33.071434 291.770996,31.800823 289.589569,30.962564 
	C286.448944,29.755718 286.203308,26.914886 287.338043,25.022438 
	C288.053833,23.828682 291.351990,23.381140 293.180634,23.839725 
	C296.124847,24.578083 298.811981,26.341623 302.005249,27.861227 
	C302.005249,25.995901 301.580292,24.345345 302.116119,23.112301 
	C302.742493,21.670843 304.206818,20.593517 305.307617,19.358217 
	C306.536591,20.629501 307.947906,21.778837 308.915314,23.225080 
	C309.377777,23.916386 309.109131,25.185369 308.980896,26.167799 
	C308.442963,30.288385 309.492920,33.274525 314.620605,33.747334 
	C314.837860,32.022781 315.072083,30.163885 315.338531,28.049124 
	C317.839539,28.950016 320.238739,29.814238 322.659363,30.686184 
	C324.701385,23.892883 318.560120,23.665688 315.383392,20.968128 
	C314.217194,19.977848 313.974915,17.899559 313.311188,16.317562 
	C314.988007,15.791966 316.659180,14.886789 318.343414,14.861916 
	C319.670258,14.842320 321.013153,15.907493 323.002380,16.776226 
	C323.002380,13.826999 323.111938,11.268012 322.974121,8.722421 
	C322.809357,5.679633 324.908356,5.093386 327.069641,5.094734 
	C329.296600,5.096121 331.246613,5.862323 331.034271,8.864438 
	C330.858826,11.344818 330.998413,13.847485 330.998413,16.673988 
	C333.391296,15.753857 335.502686,14.323424 337.616241,14.320168 
	C339.385193,14.317441 341.156738,15.982740 342.927124,16.909424 
	C342.000244,18.407322 341.352997,20.241512 340.068604,21.309406 
	C338.760651,22.396925 336.860168,22.841328 335.157959,23.370762 
	C331.586029,24.481735 330.064606,26.647690 331.353394,30.565561 
	C333.623138,29.628475 335.946167,28.669390 338.719635,27.524332 
	C338.893677,30.251017 339.028076,32.356476 339.163330,34.475166 
	C343.857849,33.459885 346.973053,31.513533 346.122742,25.864641 
	C345.789581,23.651388 344.535309,19.723465 348.441864,19.531717 
	C352.253723,19.344618 352.141571,22.936659 352.074646,25.827263 
	C352.067627,26.130610 352.288483,26.439230 352.486450,26.965662 
	C355.471161,25.728251 358.361786,24.071915 361.462341,23.430931 
	C363.096954,23.093012 365.097809,24.526966 366.933319,25.160885 
	C366.150269,27.054808 365.825287,29.431650 364.467438,30.719538 
	C362.797852,32.303108 360.266479,32.978058 357.923248,34.136932 
	C360.617645,36.424091 366.212799,36.695545 363.518982,41.325222 
	C361.403137,44.961498 357.489655,42.625256 354.825287,40.879124 
	C350.957489,38.344341 347.573578,37.752522 344.237885,41.866600 
	C345.979034,42.888332 347.779602,43.944931 350.035400,45.268650 
	C347.961517,46.427948 346.244873,47.387562 344.107239,48.582504 
	C346.994080,51.179955 349.778320,52.250145 353.306244,49.972202 
	C354.948730,48.911671 356.757507,47.422081 358.505402,47.402203 
	C360.297668,47.381817 362.107635,48.918884 363.909851,49.774303 
	C363.171906,51.205261 362.578400,52.741730 361.639923,54.026176 
	C361.108002,54.754200 360.010345,55.068897 358.508484,55.961357 
	C361.427338,57.570282 364.016785,58.997650 366.825775,60.546024 
	C366.825775,61.979553 366.825775,63.618340 366.825775,65.316505 
	C361.228210,70.572754 357.328094,63.555302 352.205322,63.233768 
	C352.134796,64.700180 352.411072,66.286987 351.898621,67.555023 
	C351.383453,68.829697 350.083130,69.787056 349.126892,70.883484 
	C348.085571,69.705544 346.992401,68.567261 346.038940,67.322044 
	C345.797363,67.006523 345.915649,66.332977 346.012848,65.853165 
	C347.108429,60.443047 344.706268,57.506245 339.155212,56.560722 
	C339.057007,58.219978 338.955231,59.939640 338.810455,62.385658 
	C336.053467,61.312717 333.713318,60.401989 331.370789,59.490578 
	C329.302368,65.486565 334.433685,66.186455 337.727509,68.429092 
	C339.124451,69.380219 340.539978,71.122208 340.761780,72.674149 
	C340.894714,73.604378 338.737030,74.861984 337.213501,75.950974 
M324.261475,40.284184 
	C323.123535,41.959789 321.985565,43.635395 320.867889,45.281162 
	C321.969788,46.434128 322.804260,47.231350 323.551453,48.103325 
	C325.788208,50.713634 329.228058,50.890766 331.169159,48.188705 
	C331.980225,47.059666 332.661896,45.184906 332.296112,43.986980 
	C331.245941,40.547607 328.585815,39.261951 324.261475,40.284184 
z"/>
<path fill="#65A6AF" opacity="1.000000" stroke="none" 
	d="
M119.467728,53.712811 
	C120.640114,52.798382 121.968826,52.203819 123.305153,51.605850 
	C121.925323,48.070354 120.711243,47.553272 117.010117,47.996391 
	C114.236870,48.328419 111.391960,48.061943 108.578957,48.061943 
	C108.311699,47.255707 108.044449,46.449471 107.777199,45.643238 
	C109.802193,44.044468 111.827187,42.445702 114.035942,40.701847 
	C113.468086,40.099480 111.873833,38.981941 111.119827,37.450665 
	C110.331711,35.850109 110.351868,33.851559 110.018692,32.026993 
	C112.088730,31.950768 114.498962,31.177685 116.140564,31.979086 
	C118.084152,32.927906 119.364822,35.234665 121.255043,37.305920 
	C122.281288,35.837543 122.769455,34.564468 123.694588,33.958313 
	C124.897278,33.170315 126.447235,32.912357 127.847733,32.426273 
	C128.306564,34.084858 129.485901,35.949482 129.082123,37.361382 
	C128.078506,40.870853 125.346176,44.325424 130.839188,46.760136 
	C131.611435,45.263248 132.403259,43.728416 133.286896,42.015644 
	C134.927170,43.486927 136.377365,44.787704 137.791962,46.056557 
	C141.960434,42.574718 137.731140,40.520557 136.541122,38.314468 
	C135.338440,36.084862 132.112259,34.196518 135.082520,31.676384 
	C137.919403,29.269423 139.742767,32.421768 141.651901,34.097984 
	C141.890060,34.307087 142.230927,34.399204 142.670975,34.618752 
	C143.163605,32.923592 143.212128,30.888758 144.238403,29.693319 
	C145.551086,28.164284 147.651947,27.311890 149.413147,26.167908 
	C150.111160,28.107517 151.260727,30.021433 151.372986,31.994371 
	C151.473831,33.766594 150.435074,35.603657 149.942276,37.266140 
	C152.577209,37.707264 154.888245,37.771324 156.896271,38.584064 
	C157.737808,38.924675 158.572144,41.073753 158.250320,41.996094 
	C157.926208,42.924995 156.228973,43.671951 155.014542,43.922497 
	C153.251678,44.286186 151.241653,43.734879 149.598831,44.315071 
	C148.052170,44.861298 146.844666,46.367901 145.487946,47.451996 
	C145.689911,47.839855 145.891876,48.227711 146.093842,48.615566 
	C147.975906,48.841236 149.857971,49.066902 151.989609,49.322491 
	C151.652161,51.169304 151.348465,52.831436 150.984604,54.822910 
	C155.067093,55.013680 157.293564,53.274197 158.577682,49.935429 
	C159.436615,47.702179 159.303253,43.805443 163.132889,45.339329 
	C164.397018,45.845654 164.498535,49.254631 165.139557,51.362389 
	C168.288422,52.015648 172.252167,52.665497 176.050980,53.846073 
	C176.521637,53.992340 176.115219,56.960804 176.115219,58.506962 
	C172.955002,58.993881 170.177582,59.421822 166.626266,59.969006 
	C168.110031,61.551151 169.479019,62.343433 169.544174,63.231392 
	C169.651138,64.689125 169.307602,67.092941 168.432266,67.484558 
	C167.270813,68.004189 165.047821,67.427620 163.929123,66.521706 
	C160.845627,64.024750 159.032974,59.017342 153.077591,62.045223 
	C154.173004,63.480667 155.097397,64.692001 156.289520,66.254166 
	C154.432663,66.846954 152.869232,67.346062 151.305801,67.845169 
	C151.217804,68.420319 151.129791,68.995468 151.041779,69.570618 
	C153.132065,70.056747 155.217758,70.564278 157.316086,71.012733 
	C157.791901,71.114433 158.347397,70.888542 158.805099,71.022400 
	C161.484146,71.805885 164.145035,72.651451 166.812042,73.476059 
	C165.211777,75.325333 163.611496,77.174606 161.890884,79.162933 
	C162.559738,80.110970 164.080582,81.574303 164.699051,83.351639 
	C165.241104,84.909348 164.770233,86.819550 164.746796,88.574043 
	C163.045319,88.415939 160.931702,88.832527 159.733185,87.973061 
	C157.620270,86.457878 156.065750,84.164040 153.786499,81.655937 
	C152.779541,83.803665 152.099030,85.255135 151.405457,86.734421 
	C144.953033,87.088310 144.597855,85.787994 149.261932,76.483826 
	C147.757629,75.416306 146.029022,74.189629 144.316406,72.974289 
	C143.898010,73.916573 143.228363,75.424660 142.370071,77.357620 
	C140.548477,75.859367 138.955887,74.549469 137.139526,73.055519 
	C132.856033,79.468468 144.462341,81.687279 139.981567,88.374420 
	C137.955261,87.597565 135.549469,86.675224 132.891968,85.656380 
	C130.581711,87.651581 131.849121,95.045982 125.803940,92.652946 
	C119.649612,90.216698 125.544739,85.760956 125.449806,83.396904 
	C122.622269,81.851517 118.593330,80.870773 118.338234,79.283508 
	C117.539207,74.311760 122.788818,76.612686 125.038811,75.021141 
	C126.743164,73.815544 128.532928,72.730659 130.284668,71.592056 
	C130.064987,71.122871 129.845322,70.653687 129.625641,70.184502 
	C127.540535,70.447784 125.455429,70.711060 122.483574,71.086311 
	C123.345802,68.730278 123.937279,67.114082 124.608200,65.280807 
	C120.707779,64.495865 117.927246,65.370522 116.975639,69.658600 
	C116.411446,72.200943 115.355751,75.177811 112.389336,74.243958 
	C111.031509,73.816490 110.642632,70.311111 109.432373,67.228882 
	C109.465477,67.224106 108.117477,67.695938 106.844795,67.542625 
	C104.419830,67.250496 101.521049,67.278450 99.763351,65.936531 
	C97.336700,64.083908 97.652336,61.700432 101.295021,60.990738 
	C103.646317,60.532642 105.992165,60.046558 108.736954,59.493061 
	C108.242126,58.904350 107.877457,58.410824 107.452721,57.975960 
	C105.969559,56.457420 103.578209,54.641376 106.273331,52.856640 
	C107.691231,51.917690 110.451233,52.680534 112.493851,53.154705 
	C113.434967,53.373180 114.479805,54.610954 114.837479,55.614662 
	C116.159950,59.325771 118.572945,59.058121 121.759529,57.560390 
	C121.048744,56.386200 120.336395,55.209438 119.467728,53.712811 
M138.072937,55.579514 
	C136.416718,56.692188 134.467743,57.568905 133.271912,59.052639 
	C132.882660,59.535606 134.273849,62.585766 135.173615,62.756096 
	C137.557251,63.207336 140.117294,62.726673 142.607147,62.616814 
	C142.795456,61.930202 142.983765,61.243595 143.172058,60.556984 
	C141.695465,59.020206 140.218872,57.483429 138.072937,55.579514 
z"/>
<path fill="#65A6AF" opacity="1.000000" stroke="none" 
	d="
M779.040833,54.649086 
	C779.012085,45.070503 779.012085,35.933361 779.012085,26.400681 
	C775.048645,24.871691 770.489502,23.112913 765.523621,21.197193 
	C774.007202,13.560819 785.840149,10.636759 791.874146,14.587924 
	C801.074829,20.612719 808.263733,29.036304 809.689941,39.992390 
	C811.007874,50.116756 810.071228,60.601082 809.385315,70.877342 
	C809.192139,73.770782 809.748657,74.649109 811.879028,76.091087 
	C814.981323,78.191002 817.619141,80.977295 820.133728,84.184761 
	C805.311340,85.430817 790.808594,82.439728 776.347046,85.823410 
	C776.152283,85.030022 775.957520,84.236633 775.762817,83.443237 
	C778.383911,82.018448 781.005005,80.593658 784.753601,78.555962 
	C782.951965,71.118202 781.010742,63.104359 779.040833,54.649086 
M804.107361,34.527149 
	C801.605347,30.721622 799.218079,26.831942 796.527893,23.164419 
	C795.770813,22.132277 793.632507,20.879526 792.984802,21.245358 
	C791.400452,22.140230 789.484131,23.782701 789.218933,25.376736 
	C788.779785,28.016672 789.533691,30.855074 789.808533,33.869183 
	C796.519897,31.085258 801.285950,33.868622 800.953125,39.759533 
	C800.452209,48.627842 799.705811,57.484009 798.926208,66.333221 
	C798.787476,67.908646 798.343750,70.473244 797.422241,70.791878 
	C792.865845,72.367470 794.222534,76.426506 793.097046,78.996758 
	C799.211731,79.810616 805.197937,80.607376 811.184143,81.404137 
	C811.312927,80.930740 811.441772,80.457336 811.570557,79.983932 
	C809.500061,78.852135 807.429565,77.720329 804.813171,76.290085 
	C807.218506,62.766132 810.321777,48.870766 804.107361,34.527149 
M794.046082,36.466698 
	C793.348450,37.077900 792.368347,37.552582 791.996765,38.321381 
	C788.191956,46.193871 787.996521,54.460556 790.007812,62.762028 
	C790.501709,64.800690 792.392639,66.500885 793.641235,68.356689 
	C794.069580,68.147316 794.497864,67.937935 794.926208,67.728561 
	C795.617432,58.596813 796.413757,49.470497 796.886414,40.327446 
	C796.957153,38.959251 795.510315,37.512608 794.046082,36.466698 
M785.140381,23.935534 
	C786.738586,22.083679 788.336792,20.231825 789.935059,18.379969 
	C789.632385,17.766609 789.329712,17.153250 789.027039,16.539890 
	C784.965149,17.322220 780.903259,18.104549 776.841370,18.886877 
	C776.853088,19.569088 776.864746,20.251299 776.876465,20.933510 
	C779.373901,21.947258 781.871399,22.961004 785.140381,23.935534 
z"/>
<path fill="#65A6AF" opacity="1.000000" stroke="none" 
	d="
M218.849991,40.368114 
	C215.738663,37.211666 214.353058,40.872364 212.284042,41.483570 
	C213.142029,43.131649 214.083618,44.742714 214.834274,46.438305 
	C215.571381,48.103237 216.332672,49.827374 216.548370,51.590950 
	C216.588791,51.921490 214.106583,52.560535 212.597504,53.129185 
	C211.735397,53.875488 210.631073,55.506046 209.255432,55.781448 
	C208.361801,55.960350 207.055771,54.183224 205.974792,53.236462 
	C205.754013,53.043087 205.798813,52.489326 205.575195,52.365623 
	C204.076614,51.536644 202.538574,50.779053 201.013321,49.998310 
	C202.332153,48.486832 203.875748,47.109959 204.890121,45.416157 
	C205.557007,44.302555 206.106323,42.300808 205.551193,41.468884 
	C204.760666,40.284142 202.852341,39.121075 201.526184,39.229443 
	C200.295029,39.330040 198.927628,40.941441 198.142319,42.210682 
	C197.613190,43.065922 198.453888,44.933929 197.857803,45.544693 
	C196.909454,46.516403 195.086670,47.538986 193.968460,47.249046 
	C191.762177,46.676968 189.785217,45.220467 187.477386,44.005463 
	C187.362671,41.356842 186.951508,38.081722 187.348053,34.907509 
	C187.414246,34.377567 191.196869,33.607006 192.903946,34.125977 
	C197.143814,35.414951 198.948517,34.752197 199.005173,31.039024 
	C199.062943,27.250687 197.170639,26.413383 193.901962,27.563160 
	C187.953262,29.655651 188.156082,29.667177 188.432022,23.704723 
	C188.523407,21.730221 187.280197,19.693953 186.759842,18.043383 
	C189.383942,16.943228 191.255707,16.115561 193.161545,15.375708 
	C194.289154,14.937966 195.822342,14.026426 196.536667,14.436543 
	C197.382172,14.921985 197.491379,16.624697 198.011261,17.757788 
	C198.786377,19.447142 199.416565,21.300503 200.609238,22.637245 
	C200.937653,23.005325 203.201157,22.010136 204.310791,21.251488 
	C208.004181,18.726370 205.749054,17.396223 203.366745,15.531518 
	C202.115311,14.551996 201.646164,12.300812 201.390610,10.541533 
	C201.336853,10.171437 203.763611,9.441026 206.025955,8.446445 
	C206.251678,8.230393 207.269547,6.540208 208.612671,6.221716 
	C209.511154,6.008664 210.885529,7.727513 212.016373,8.620564 
	C212.310516,8.852855 212.423340,9.383745 212.732269,9.518067 
	C218.326736,11.950703 218.376450,12.497231 214.052444,16.071762 
	C213.007980,16.935202 211.830307,19.411613 212.237152,19.914885 
	C213.338577,21.277357 215.196548,22.528606 216.879288,22.718636 
	C217.777771,22.820103 219.076355,20.728773 219.910904,19.443100 
	C220.294525,18.852116 219.930725,17.811609 220.019516,16.987183 
	C220.335815,14.050537 221.646393,13.198816 224.349930,14.827013 
	C226.218872,15.952574 228.230225,16.841631 230.500458,18.001095 
	C230.623993,20.534765 231.468353,23.923025 230.761627,26.949022 
	C229.913757,30.579330 226.896805,28.932947 224.725555,27.906366 
	C221.794281,26.520456 219.585098,26.680780 219.046967,30.320698 
	C218.488480,34.098377 220.728561,35.648846 224.390121,34.240414 
	C230.123657,32.035004 230.347916,32.254349 229.603195,38.179722 
	C229.492889,39.057316 230.668930,40.027840 230.888672,41.034237 
	C231.126953,42.125492 230.942719,43.309010 230.942719,44.315601 
	C228.910400,44.994801 227.096390,45.559479 225.313950,46.210598 
	C224.014938,46.685112 222.757568,47.273628 221.481644,47.811317 
	C220.987595,46.500248 220.456802,45.201515 220.011154,43.874187 
	C219.658096,42.822598 219.409454,41.735935 218.849991,40.368114 
z"/>
<path fill="#65A6AF" opacity="1.000000" stroke="none" 
	d="
M556.751648,84.982285 
	C556.100708,84.285797 555.471680,83.274048 555.716736,82.972450 
	C556.970703,81.429146 558.196899,79.418915 559.894531,78.758102 
	C566.940552,76.015472 564.620361,70.470398 563.811890,65.770752 
	C561.673035,53.335903 562.607910,41.408508 570.157776,31.036024 
	C574.014587,25.737280 578.152527,19.924627 585.565063,18.823601 
	C587.373535,18.554976 589.435974,18.485098 591.106812,19.086849 
	C595.916138,20.818960 600.585022,22.941174 605.309082,24.910120 
	C605.250916,25.418085 605.192810,25.926048 605.134705,26.434011 
	C602.224670,27.624512 599.389893,29.082846 596.382629,29.926838 
	C593.621155,30.701860 592.400330,32.168156 593.034424,34.852474 
	C595.948364,47.189583 592.242615,58.880432 589.673279,70.687256 
	C589.396423,71.959557 589.302795,73.330460 588.747925,74.472878 
	C586.837585,78.406342 588.072144,80.588432 592.171143,81.727211 
	C593.463623,82.086281 594.537476,83.232430 595.962402,84.186409 
	C589.091797,87.814354 583.047546,84.057167 576.860291,83.814751 
	C570.324524,83.558678 563.739929,84.548813 556.751648,84.982285 
M568.937622,76.987617 
	C566.749390,78.424500 564.561218,79.861389 562.372986,81.298271 
	C562.514282,81.691170 562.655579,82.084076 562.796875,82.476974 
	C568.471558,81.395439 574.146179,80.313896 579.913330,79.214737 
	C579.329041,77.364182 579.308228,74.639610 578.080688,73.889351 
	C573.711670,71.219055 574.298096,67.089859 574.011108,63.140274 
	C573.641785,58.058006 573.456177,52.960121 572.987244,47.887833 
	C572.066040,37.922310 573.797180,35.958702 582.527771,37.414429 
	C585.223145,32.182156 584.384705,28.986242 579.639038,26.204809 
	C569.996460,33.351833 566.472717,43.664608 566.217468,54.892639 
	C566.056824,61.958027 567.993286,69.071091 568.937622,76.987617 
M580.916260,41.735836 
	C579.651367,41.314209 578.386536,40.892582 577.121582,40.470940 
	C576.751282,41.665005 576.027039,42.873657 576.075562,44.050468 
	C576.236572,47.956524 576.615906,51.857376 577.023560,55.748486 
	C577.507812,60.370609 578.108215,64.980568 578.688843,69.852097 
	C585.163513,65.175415 585.928101,54.559875 580.916260,41.735836 
M585.957397,27.789053 
	C589.981323,29.785999 592.412415,27.240952 595.787292,24.842438 
	C591.014343,22.877386 587.237366,20.195347 582.756348,23.985107 
	C583.844055,25.184193 584.719666,26.149439 585.957397,27.789053 
z"/>
<path fill="#65A6AF" opacity="1.000000" stroke="none" 
	d="
M723.996582,37.949585 
	C726.270996,38.836155 728.149597,39.677696 730.017395,40.514378 
	C729.725647,41.171230 729.664917,41.624866 729.475586,41.687096 
	C726.252747,42.745983 721.953003,42.862885 720.107666,45.054348 
	C718.574829,46.874607 720.391846,51.196983 719.903259,54.280788 
	C718.837463,61.007381 717.908630,67.885071 715.652344,74.250351 
	C714.017395,78.862801 714.262085,81.048592 719.144409,82.073334 
	C719.880371,82.227798 720.506470,82.905899 722.219116,84.008728 
	C709.046509,84.008728 696.928650,84.008728 683.896362,84.008728 
	C685.464539,82.276924 686.300232,80.487823 687.567322,80.096878 
	C695.167175,77.751938 692.655273,72.090866 691.614197,67.394539 
	C688.629333,53.929314 699.169312,37.229485 712.856018,35.288090 
	C716.245728,34.807270 720.009216,36.961559 723.996582,37.949585 
M695.979492,72.461510 
	C696.295959,74.507553 696.612488,76.553596 696.907043,78.457634 
	C694.966675,79.526703 693.298035,80.446060 691.629395,81.365417 
	C691.707275,81.626396 691.785156,81.887375 691.863037,82.148354 
	C696.747681,81.343063 701.632324,80.537773 707.102844,79.635887 
	C705.955261,78.086441 704.909119,76.808670 704.018494,75.430397 
	C703.255005,74.248703 702.266235,73.010643 702.074951,71.695992 
	C701.253174,66.046188 700.468506,60.372478 700.118347,54.679916 
	C699.926941,51.568554 700.904907,48.685505 705.113770,48.983013 
	C706.684814,49.094063 708.270264,49.000988 711.083923,49.000988 
	C710.047791,46.065155 709.103027,43.388054 708.091553,40.522095 
	C694.261902,48.216938 693.581787,58.575096 695.979492,72.461510 
M705.015808,70.610062 
	C706.704346,72.466080 708.912048,71.979996 709.814270,69.322891 
	C711.561462,64.176979 710.997437,59.052811 708.544739,54.316612 
	C707.897705,53.067211 705.810791,52.563454 703.661926,51.288082 
	C704.185242,58.507652 704.593750,64.143105 705.015808,70.610062 
M712.996887,38.041599 
	C712.124207,38.473019 711.251526,38.904442 710.374329,39.346790 
	C712.901306,44.343975 716.213867,43.213669 720.589294,40.124561 
	C717.867798,39.282269 715.809692,38.645298 712.996887,38.041599 
z"/>
<path fill="#65A5AF" opacity="1.000000" stroke="none" 
	d="
M403.500580,58.949802 
	C403.847839,60.603889 404.261139,62.142754 405.140503,63.339035 
	C405.764038,64.187302 407.017181,64.572777 408.345001,65.381416 
	C408.530365,64.521439 408.625458,63.249554 409.084595,62.126511 
	C409.983063,59.928837 411.095093,59.058765 413.097626,61.421345 
	C413.795929,62.245232 415.510681,62.207600 416.760986,62.564671 
	C415.751556,70.001381 415.751556,70.001381 410.693848,69.315742 
	C410.693848,71.796021 410.693848,74.272377 410.693848,77.081718 
	C412.058655,76.700211 413.343048,75.944275 414.436920,76.158974 
	C415.337982,76.335823 416.480194,77.563980 416.679504,78.503571 
	C416.981171,79.925690 416.556763,81.501839 416.424286,83.228577 
	C409.634308,84.907310 409.634308,84.907310 407.912170,80.365753 
	C407.188599,81.277428 406.708679,82.435371 405.868439,82.834145 
	C403.595886,83.912682 403.091858,84.992393 403.549500,87.214310 
	C403.785980,88.362579 403.263306,90.702377 402.797485,90.779701 
	C400.850433,91.102882 399.451569,95.533180 396.925049,91.763901 
	C396.009460,90.397888 393.991028,88.608253 394.333160,87.769325 
	C395.611877,84.633675 395.175262,83.180626 391.671356,82.756248 
	C391.163452,82.694733 390.830566,81.188026 390.113220,79.735672 
	C389.637634,81.219704 389.288605,82.215363 388.999512,83.228119 
	C388.089050,86.417618 387.446442,86.472260 384.884735,84.250092 
	C384.108429,83.576653 382.544495,83.811134 381.341614,83.629807 
	C382.013489,75.823692 382.013489,75.823692 387.288147,76.816460 
	C387.288147,74.322495 387.288147,71.846138 387.288147,68.938957 
	C386.197998,69.287224 384.988953,70.114143 384.238586,69.809875 
	C383.113800,69.353775 381.860504,68.256660 381.485168,67.152328 
	C381.013123,65.763481 381.371399,64.092422 381.371399,63.205376 
	C382.891907,62.133698 384.122070,60.844025 385.609894,60.379311 
	C386.478058,60.108135 388.141449,60.870510 388.750977,61.687328 
	C389.428558,62.595295 389.314667,64.093918 389.570526,65.470825 
	C390.902435,64.640839 392.112427,64.191658 392.867126,63.339352 
	C393.807983,62.276768 394.678772,60.958553 395.017670,59.609497 
	C395.376831,58.179958 394.455566,55.853413 395.199768,55.221584 
	C396.544220,54.080070 399.620117,52.897625 400.341705,53.546448 
	C401.737885,54.801910 405.615326,55.137848 403.500580,58.949802 
z"/>
<path fill="#65A5AF" opacity="1.000000" stroke="none" 
	d="
M240.184952,81.466629 
	C237.741119,82.352837 236.160065,81.806625 237.378036,79.471115 
	C238.310989,77.682121 235.172546,73.520065 240.251785,74.113541 
	C241.165833,74.220337 242.028275,74.768578 243.269196,75.250839 
	C243.269196,72.444763 243.269196,69.983688 243.269196,67.036392 
	C242.190796,67.329323 240.973587,68.033394 239.922119,67.839348 
	C238.894165,67.649643 237.397629,66.662346 237.240051,65.814537 
	C236.946823,64.236847 237.476761,62.506161 237.711517,60.416553 
	C240.476883,60.432579 245.486496,54.697063 245.762009,63.718334 
	C246.976166,62.727348 247.960602,62.108730 248.700562,61.273537 
	C249.646667,60.205696 251.353928,58.496803 251.054337,57.881229 
	C250.055435,55.828808 249.245712,54.817020 251.710678,52.786083 
	C254.519028,50.472191 256.335358,50.774029 258.419342,53.028717 
	C259.148743,53.817898 260.136292,55.342438 259.834747,55.947536 
	C258.252441,59.122726 258.484924,60.960991 262.502716,61.292431 
	C262.904724,61.325592 263.183655,62.851192 264.027344,64.942451 
	C264.542694,62.500755 264.621490,61.220535 265.089386,60.103241 
	C266.004181,57.918705 267.153168,57.019455 269.096527,59.453495 
	C269.681732,60.186481 271.269135,60.119335 272.455536,60.434135 
	C272.679535,68.094948 272.679535,68.094948 266.665436,67.332764 
	C266.776520,68.581459 266.960907,69.823906 266.976929,71.068520 
	C266.992737,72.299751 266.838562,73.533165 266.738342,75.084404 
	C268.077026,74.707802 269.364319,73.947845 270.461731,74.161797 
	C271.352142,74.335403 272.473694,75.582314 272.671478,76.525421 
	C272.975189,77.973747 272.574280,79.569839 272.463501,81.236702 
	C265.628174,82.831779 265.628174,82.831779 263.898956,78.370766 
	C263.175934,79.275383 262.689392,80.438034 261.843384,80.835495 
	C259.591064,81.893608 259.102539,82.967323 259.565918,85.232231 
	C259.799561,86.374092 259.255310,88.701057 258.771881,88.783363 
	C256.836243,89.112915 255.425629,93.539101 252.916534,89.740433 
	C252.011688,88.370552 249.998947,86.595009 250.339478,85.743263 
	C251.596146,82.599945 251.104401,81.177368 247.646454,80.753166 
	C247.141953,80.691284 246.816116,79.172966 246.567734,78.659561 
	C245.160690,80.350769 243.668930,82.143791 242.177185,83.936813 
	C241.622299,83.046478 241.067413,82.156128 240.184952,81.466629 
z"/>
<path fill="#65A6AF" opacity="1.000000" stroke="none" 
	d="
M477.915588,62.815346 
	C479.575836,64.514030 479.538727,69.978767 483.411346,65.154961 
	C485.426819,62.644440 484.585602,61.678188 481.835571,60.925152 
	C480.401306,60.532402 479.167633,59.407051 477.975494,58.691887 
	C479.664124,55.867474 481.072266,53.512142 482.314758,51.433941 
	C484.540161,51.758308 486.772430,51.737213 488.682373,52.511349 
	C489.607574,52.886360 490.483856,54.796154 490.395325,55.934315 
	C490.254608,57.743366 489.287476,59.488132 488.509033,61.721714 
	C492.684204,61.952950 496.574982,63.077282 494.145569,57.007538 
	C493.747620,56.013313 494.406738,54.595993 494.615814,53.098186 
	C497.937805,53.827816 501.357635,53.667969 503.266815,55.288212 
	C504.777863,56.570621 504.434937,60.037682 505.011383,63.034164 
	C503.149109,63.034164 501.590302,62.723125 500.249359,63.130035 
	C499.124573,63.471355 497.815521,64.484779 497.426239,65.516792 
	C497.170654,66.194366 498.188171,67.904198 499.032349,68.295326 
	C499.946808,68.719017 501.419769,68.386307 502.473267,67.954399 
	C504.012115,67.323471 505.394104,66.309875 506.793732,65.488297 
	C508.277466,68.412880 509.419769,70.664436 510.635651,73.061058 
	C509.247772,74.672798 507.777771,76.811668 505.829529,78.341515 
	C505.336975,78.728279 503.262421,77.260017 502.017151,76.480644 
	C500.919373,75.793571 499.714386,74.041389 499.003265,74.253891 
	C497.846527,74.599548 496.492859,76.075775 496.308350,77.246063 
	C496.188629,78.005623 497.920959,79.171211 498.965302,79.969284 
	C500.083069,80.823448 501.367340,81.459740 502.578918,82.191132 
	C501.762482,83.145355 500.956146,84.108467 500.127136,85.051628 
	C498.968231,86.370148 497.944031,88.533318 496.586517,88.772827 
	C494.764343,89.094345 492.678986,87.924255 489.582855,87.092697 
	C487.164948,85.429413 497.865936,78.751251 486.876373,78.733276 
	C486.876373,81.037781 486.876373,83.675255 486.876373,86.942116 
	C484.267792,86.942116 481.003754,87.898666 479.259644,86.679970 
	C477.421387,85.395439 476.504974,82.103699 476.168518,79.558968 
	C475.856445,77.198952 477.531921,76.663124 479.835022,77.793556 
	C480.447388,78.094116 482.804077,76.623665 482.745087,76.181953 
	C482.552216,74.737358 481.829987,73.197533 480.848785,72.112640 
	C480.497467,71.724220 478.713989,72.320732 477.789154,72.835785 
	C476.481018,73.564255 475.363007,74.634064 474.479858,75.314430 
	C472.895020,72.958351 471.863342,71.457840 470.871552,69.931396 
	C470.543549,69.426575 470.088470,68.846344 470.108246,68.316109 
	C470.129761,67.738190 470.727509,66.654800 470.916077,66.688034 
	C474.522125,67.323723 473.103424,59.872742 477.915588,62.815346 
z"/>
<path fill="#65A6AF" opacity="1.000000" stroke="none" 
	d="
M440.600830,20.626945 
	C439.363739,18.234924 437.849457,16.117622 436.303558,13.956121 
	C440.702026,9.205933 443.673035,9.110874 449.866333,13.726658 
	C448.301056,15.950397 446.731201,18.170853 445.161316,20.391308 
	C447.007507,21.038273 448.853729,21.685238 450.504486,22.263714 
	C451.485504,19.217453 452.192261,17.022867 452.892578,14.848270 
	C455.941650,16.470890 458.205841,17.675795 461.017181,19.171888 
	C460.542267,21.739990 459.954895,24.916279 459.244354,28.758755 
	C457.083832,27.399916 456.062439,26.313969 454.918793,26.164667 
	C453.805206,26.019291 452.068634,26.499249 451.520538,27.317499 
	C450.955475,28.161118 451.062500,30.067741 451.687164,30.900200 
	C452.181000,31.558357 454.095490,31.755352 455.047882,31.359722 
	C459.141022,29.659369 461.710815,29.154202 459.696594,35.127850 
	C459.322296,36.237865 460.687866,37.934536 461.018341,38.772152 
	C458.251343,40.261284 456.127380,41.404369 453.133484,43.015610 
	C452.365723,41.239666 451.479645,39.190090 450.132721,36.074543 
	C449.165833,36.331722 447.310669,36.825157 445.455536,37.318592 
	C446.806183,39.579475 448.156830,41.840359 449.568054,44.202629 
	C445.142883,48.862045 442.284760,48.941475 436.133545,44.243156 
	C437.690887,42.021778 439.253387,39.804077 440.815918,37.586384 
	C438.968567,36.951736 437.121216,36.317081 435.512421,35.764378 
	C434.516357,38.807850 433.800934,40.993767 433.106781,43.114677 
	C430.048157,41.509705 427.780548,40.319809 424.985443,38.853119 
	C425.543549,36.231277 426.220703,33.050011 426.909332,29.814968 
	C429.345795,30.801430 430.894531,31.988935 432.243469,31.793959 
	C433.287323,31.643078 434.562469,29.851080 434.791931,28.613789 
	C434.914825,27.951138 432.686768,25.988495 432.133331,26.202145 
	C428.015564,27.791904 423.973389,30.037235 426.408295,22.192226 
	C426.663666,21.369478 425.243439,20.026676 424.705811,19.105467 
	C427.431183,17.840061 429.615234,16.825983 432.651917,15.416023 
	C433.013885,15.845229 434.952240,17.135101 434.815765,18.144522 
	C433.892609,24.974157 437.749786,21.534159 440.600830,20.626945 
z"/>
<path fill="#65A6AF" opacity="1.000000" stroke="none" 
	d="
M631.526428,80.179443 
	C631.918396,75.631958 632.035522,71.247673 631.983276,66.865410 
	C631.905457,60.330994 634.590393,55.089184 639.528625,51.056789 
	C644.963196,46.619133 649.860657,49.675018 655.811768,53.175552 
	C647.113892,53.700485 648.593018,58.948792 648.824829,64.237053 
	C648.998657,68.204124 648.060913,72.394135 646.776611,76.201042 
	C645.533264,79.886749 645.440918,82.548180 649.324463,84.564629 
	C642.156311,84.564629 634.988098,84.564629 627.101013,84.564629 
	C628.581909,83.030617 629.878845,81.687088 631.526428,80.179443 
M640.372681,58.113926 
	C641.110291,58.311211 641.847900,58.508495 642.585510,58.705769 
	C642.374634,56.805103 642.163818,54.904438 641.856262,52.132137 
	C633.487915,59.083141 633.404297,67.232101 634.274902,75.759628 
	C634.511353,78.075676 634.036682,80.464325 633.860168,83.267998 
	C635.619019,82.629333 637.903320,81.799866 638.900574,81.437729 
	C638.215942,73.867523 637.525757,67.474792 637.181885,61.063496 
	C637.131897,60.130978 638.738098,59.109646 640.372681,58.113926 
M642.011169,63.719296 
	C641.335022,62.781178 640.658875,61.843063 639.982727,60.904949 
	C639.732788,61.101974 639.482788,61.299000 639.232849,61.496025 
	C639.603821,66.115128 639.974854,70.734222 640.413574,76.196709 
	C643.648132,72.007248 643.621277,68.363968 642.011169,63.719296 
z"/>
<path fill="#000000" opacity="1.000000" stroke="none" 
	d="
M36.342236,47.134743 
	C37.733376,42.963787 41.171635,43.269100 43.337109,44.451050 
	C44.913330,45.311382 46.144527,48.547764 45.931694,50.555431 
	C45.562260,54.040268 42.058983,54.960148 39.524223,53.743534 
	C37.588406,52.814392 33.937637,51.251347 36.342236,47.134743 
z"/>
<path fill="#000000" opacity="1.000000" stroke="none" 
	d="
M324.640320,40.166210 
	C328.585815,39.261951 331.245941,40.547607 332.296112,43.986980 
	C332.661896,45.184906 331.980225,47.059666 331.169159,48.188705 
	C329.228058,50.890766 325.788208,50.713634 323.551453,48.103325 
	C322.804260,47.231350 321.969788,46.434128 320.867889,45.281162 
	C321.985565,43.635395 323.123535,41.959789 324.640320,40.166210 
z"/>
<path fill="#000000" opacity="1.000000" stroke="none" 
	d="
M138.407608,55.763084 
	C140.218872,57.483429 141.695465,59.020206 143.172058,60.556984 
	C142.983765,61.243595 142.795456,61.930202 142.607147,62.616814 
	C140.117294,62.726673 137.557251,63.207336 135.173615,62.756096 
	C134.273849,62.585766 132.882660,59.535606 133.271912,59.052639 
	C134.467743,57.568905 136.416718,56.692188 138.407608,55.763084 
z"/>
<path fill="#000000" opacity="1.000000" stroke="none" 
	d="
M804.360962,34.826992 
	C810.321777,48.870766 807.218506,62.766132 804.813171,76.290085 
	C807.429565,77.720329 809.500061,78.852135 811.570557,79.983932 
	C811.441772,80.457336 811.312927,80.930740 811.184143,81.404137 
	C805.197937,80.607376 799.211731,79.810616 793.097046,78.996758 
	C794.222534,76.426506 792.865845,72.367470 797.422241,70.791878 
	C798.343750,70.473244 798.787476,67.908646 798.926208,66.333221 
	C799.705811,57.484009 800.452209,48.627842 800.953125,39.759533 
	C801.285950,33.868622 796.519897,31.085258 789.808533,33.869183 
	C789.533691,30.855074 788.779785,28.016672 789.218933,25.376736 
	C789.484131,23.782701 791.400452,22.140230 792.984802,21.245358 
	C793.632507,20.879526 795.770813,22.132277 796.527893,23.164419 
	C799.218079,26.831942 801.605347,30.721622 804.360962,34.826992 
z"/>
<path fill="#000000" opacity="1.000000" stroke="none" 
	d="
M794.405823,36.284477 
	C795.510315,37.512608 796.957153,38.959251 796.886414,40.327446 
	C796.413757,49.470497 795.617432,58.596813 794.926208,67.728561 
	C794.497864,67.937935 794.069580,68.147316 793.641235,68.356689 
	C792.392639,66.500885 790.501709,64.800690 790.007812,62.762028 
	C787.996521,54.460556 788.191956,46.193871 791.996765,38.321381 
	C792.368347,37.552582 793.348450,37.077900 794.405823,36.284477 
z"/>
<path fill="#000000" opacity="1.000000" stroke="none" 
	d="
M784.754639,23.955143 
	C781.871399,22.961004 779.373901,21.947258 776.876465,20.933510 
	C776.864746,20.251299 776.853088,19.569088 776.841370,18.886877 
	C780.903259,18.104549 784.965149,17.322220 789.027039,16.539890 
	C789.329712,17.153250 789.632385,17.766609 789.935059,18.379969 
	C788.336792,20.231825 786.738586,22.083679 784.754639,23.955143 
z"/>
<path fill="#000000" opacity="1.000000" stroke="none" 
	d="
M568.963257,76.575188 
	C567.993286,69.071091 566.056824,61.958027 566.217468,54.892639 
	C566.472717,43.664608 569.996460,33.351833 579.639038,26.204809 
	C584.384705,28.986242 585.223145,32.182156 582.527771,37.414429 
	C573.797180,35.958702 572.066040,37.922310 572.987244,47.887833 
	C573.456177,52.960121 573.641785,58.058006 574.011108,63.140274 
	C574.298096,67.089859 573.711670,71.219055 578.080688,73.889351 
	C579.308228,74.639610 579.329041,77.364182 579.913330,79.214737 
	C574.146179,80.313896 568.471558,81.395439 562.796875,82.476974 
	C562.655579,82.084076 562.514282,81.691170 562.372986,81.298271 
	C564.561218,79.861389 566.749390,78.424500 568.963257,76.575188 
z"/>
<path fill="#000000" opacity="1.000000" stroke="none" 
	d="
M581.005676,42.123215 
	C585.928101,54.559875 585.163513,65.175415 578.688843,69.852097 
	C578.108215,64.980568 577.507812,60.370609 577.023560,55.748486 
	C576.615906,51.857376 576.236572,47.956524 576.075562,44.050468 
	C576.027039,42.873657 576.751282,41.665005 577.121582,40.470947 
	C578.386536,40.892582 579.651367,41.314209 581.005676,42.123215 
z"/>
<path fill="#000000" opacity="1.000000" stroke="none" 
	d="
M585.776367,27.451870 
	C584.719666,26.149439 583.844055,25.184193 582.756348,23.985107 
	C587.237366,20.195347 591.014343,22.877386 595.787292,24.842438 
	C592.412415,27.240952 589.981323,29.785999 585.776367,27.451870 
z"/>
<path fill="#000000" opacity="1.000000" stroke="none" 
	d="
M695.932617,72.023712 
	C693.581787,58.575096 694.261902,48.216938 708.091553,40.522095 
	C709.103027,43.388054 710.047791,46.065155 711.083923,49.000988 
	C708.270264,49.000988 706.684814,49.094063 705.113770,48.983013 
	C700.904907,48.685505 699.926941,51.568554 700.118347,54.679916 
	C700.468506,60.372478 701.253174,66.046188 702.074951,71.695992 
	C702.266235,73.010643 703.255005,74.248703 704.018494,75.430397 
	C704.909119,76.808670 705.955261,78.086441 707.102844,79.635887 
	C701.632324,80.537773 696.747681,81.343063 691.863037,82.148354 
	C691.785156,81.887375 691.707275,81.626396 691.629395,81.365417 
	C693.298035,80.446060 694.966675,79.526703 696.907043,78.457634 
	C696.612488,76.553596 696.295959,74.507553 695.932617,72.023712 
z"/>
<path fill="#000000" opacity="1.000000" stroke="none" 
	d="
M705.009033,70.194305 
	C704.593750,64.143105 704.185242,58.507652 703.661926,51.288082 
	C705.810791,52.563454 707.897705,53.067211 708.544739,54.316612 
	C710.997437,59.052811 711.561462,64.176979 709.814270,69.322891 
	C708.912048,71.979996 706.704346,72.466080 705.009033,70.194305 
z"/>
<path fill="#000000" opacity="1.000000" stroke="none" 
	d="
M713.374268,38.024963 
	C715.809692,38.645298 717.867798,39.282269 720.589294,40.124561 
	C716.213867,43.213669 712.901306,44.343975 710.376587,39.341324 
	C711.251526,38.904442 712.124207,38.473019 713.374268,38.024963 
z"/>
<path fill="#000000" opacity="1.000000" stroke="none" 
	d="
M639.975281,58.121670 
	C638.738098,59.109646 637.131897,60.130978 637.181885,61.063496 
	C637.525757,67.474792 638.215942,73.867523 638.900574,81.437729 
	C637.903320,81.799866 635.619019,82.629333 633.860168,83.267998 
	C634.036682,80.464325 634.511353,78.075676 634.274902,75.759628 
	C633.404297,67.232101 633.487915,59.083141 641.856262,52.132137 
	C642.163818,54.904438 642.374634,56.805103 642.585510,58.705772 
	C641.847900,58.508495 641.110291,58.311211 639.975281,58.121670 
z"/>
<path fill="#000000" opacity="1.000000" stroke="none" 
	d="
M642.071960,64.130661 
	C643.621277,68.363968 643.648132,72.007248 640.413574,76.196709 
	C639.974854,70.734222 639.603821,66.115128 639.232849,61.496025 
	C639.482788,61.299000 639.732788,61.101974 639.982727,60.904949 
	C640.658875,61.843063 641.335022,62.781178 642.071960,64.130661 
z"/>
</svg>